{
 "accessors": [
  {
   "componentType": 5126,
   "type": "VEC3",
   "count": 25,
   "max": [
    2.182605028152466,
    4.185418605804443,
    4.716660022735596
   ],
   "min": [
    0.5946609973907471,
    2.407480001449585,
    3.266085147857666
   ],
   "bufferView": 2
  },
  {
   "componentType": 5126,
   "type": "VEC3",
   "count": 25,
   "bufferView": 3
  },
  {
   "componentType": 5126,
   "type": "VEC2",
   "count": 25,
   "bufferView": 4
  },
  {
   "componentType": 5121,
   "type": "SCALAR",
   "count": 108,
   "bufferView": 5
  },
  {
   "componentType": 5126,
   "type": "VEC3",
   "count": 56,
   "max": [
    3.011430025100708,
    2.17861008644104,
    4.126389980316162
   ],
   "min": [
    -2.9941699504852295,
    -0.055316999554634094,
    0.2300969958305359
   ],
   "bufferView": 6
  },
  {
   "componentType": 5126,
   "type": "VEC3",
   "count": 56,
   "bufferView": 7
  },
  {
   "componentType": 5126,
   "type": "VEC2",
   "count": 56,
   "bufferView": 8
  },
  {
   "componentType": 5121,
   "type": "SCALAR",
   "count": 120,
   "bufferView": 9
  },
  {
   "componentType": 5126,
   "type": "VEC3",
   "count": 25,
   "max": [
    -0.6475584506988525,
    4.185418605804443,
    4.645080089569092
   ],
   "min": [
    -2.182605028152466,
    2.419600009918213,
    3.266085147857666
   ],
   "bufferView": 10
  },
  {
   "componentType": 5126,
   "type": "VEC3",
   "count": 25,
   "bufferView": 11
  },
  {
   "componentType": 5126,
   "type": "VEC2",
   "count": 25,
   "bufferView": 12
  },
  {
   "componentType": 5121,
   "type": "SCALAR",
   "count": 108,
   "bufferView": 13
  },
  {
   "componentType": 5126,
   "type": "VEC3",
   "count": 628,
   "max": [
    2.6159024238586426,
    7.146053791046143,
    1.4229377508163452
   ],
   "min": [
    -2.619016647338867,
    2.290602445602417,
    -3.584981679916382
   ],
   "bufferView": 14
  },
  {
   "componentType": 5126,
   "type": "VEC3",
   "count": 628,
   "bufferView": 15
  },
  {
   "componentType": 5126,
   "type": "VEC2",
   "count": 628,
   "bufferView": 16
  },
  {
   "componentType": 5123,
   "type": "SCALAR",
   "count": 3150,
   "bufferView": 17
  },
  {
   "componentType": 5126,
   "type": "VEC3",
   "count": 1483,
   "max": [
    3.287729263305664,
    5.05897331237793,
    4.953823566436768
   ],
   "min": [
    -3.271890163421631,
    -0.05015166476368904,
    -2.5745275020599365
   ],
   "bufferView": 18
  },
  {
   "componentType": 5126,
   "type": "VEC3",
   "count": 1483,
   "bufferView": 19
  },
  {
   "componentType": 5126,
   "type": "VEC2",
   "count": 1483,
   "bufferView": 20
  },
  {
   "componentType": 5123,
   "type": "SCALAR",
   "count": 7290,
   "bufferView": 21
  },
  {
   "componentType": 5126,
   "type": "VEC3",
   "count": 86,
   "max": [
    2.5045697689056396,
    2.2641899585723877,
    4.708425045013428
   ],
   "min": [
    -2.395653009414673,
    1.6297849416732788,
    2.858053684234619
   ],
   "bufferView": 22
  },
  {
   "componentType": 5126,
   "type": "VEC3",
   "count": 86,
   "bufferView": 23
  },
  {
   "componentType": 5126,
   "type": "VEC2",
   "count": 86,
   "bufferView": 24
  },
  {
   "componentType": 5121,
   "type": "SCALAR",
   "count": 360,
   "bufferView": 25
  }
 ],
 "asset": {
  "version": "2.0",
  "generator": "clara.io"
 },
 "bufferViews": [
  {
   "buffer": 0,
   "byteOffset": 0,
   "byteLength": 12277
  },
  {
   "buffer": 0,
   "byteOffset": 12280,
   "byteLength": 44983
  },
  {
   "buffer": 0,
   "byteOffset": 57264,
   "byteLength": 300,
   "target": 34962,
   "byteStride": 12
  },
  {
   "buffer": 0,
   "byteOffset": 57564,
   "byteLength": 300,
   "target": 34962,
   "byteStride": 12
  },
  {
   "buffer": 0,
   "byteOffset": 57864,
   "byteLength": 200,
   "target": 34962,
   "byteStride": 8
  },
  {
   "buffer": 0,
   "byteOffset": 58064,
   "byteLength": 108,
   "target": 34963
  },
  {
   "buffer": 0,
   "byteOffset": 58172,
   "byteLength": 672,
   "target": 34962,
   "byteStride": 12
  },
  {
   "buffer": 0,
   "byteOffset": 58844,
   "byteLength": 672,
   "target": 34962,
   "byteStride": 12
  },
  {
   "buffer": 0,
   "byteOffset": 59516,
   "byteLength": 448,
   "target": 34962,
   "byteStride": 8
  },
  {
   "buffer": 0,
   "byteOffset": 59964,
   "byteLength": 120,
   "target": 34963
  },
  {
   "buffer": 0,
   "byteOffset": 60084,
   "byteLength": 300,
   "target": 34962,
   "byteStride": 12
  },
  {
   "buffer": 0,
   "byteOffset": 60384,
   "byteLength": 300,
   "target": 34962,
   "byteStride": 12
  },
  {
   "buffer": 0,
   "byteOffset": 60684,
   "byteLength": 200,
   "target": 34962,
   "byteStride": 8
  },
  {
   "buffer": 0,
   "byteOffset": 60884,
   "byteLength": 108,
   "target": 34963
  },
  {
   "buffer": 0,
   "byteOffset": 60992,
   "byteLength": 7536,
   "target": 34962,
   "byteStride": 12
  },
  {
   "buffer": 0,
   "byteOffset": 68528,
   "byteLength": 7536,
   "target": 34962,
   "byteStride": 12
  },
  {
   "buffer": 0,
   "byteOffset": 76064,
   "byteLength": 5024,
   "target": 34962,
   "byteStride": 8
  },
  {
   "buffer": 0,
   "byteOffset": 81088,
   "byteLength": 6300,
   "target": 34963
  },
  {
   "buffer": 0,
   "byteOffset": 87388,
   "byteLength": 17796,
   "target": 34962,
   "byteStride": 12
  },
  {
   "buffer": 0,
   "byteOffset": 105184,
   "byteLength": 17796,
   "target": 34962,
   "byteStride": 12
  },
  {
   "buffer": 0,
   "byteOffset": 122980,
   "byteLength": 11864,
   "target": 34962,
   "byteStride": 8
  },
  {
   "buffer": 0,
   "byteOffset": 134844,
   "byteLength": 14580,
   "target": 34963
  },
  {
   "buffer": 0,
   "byteOffset": 149424,
   "byteLength": 1032,
   "target": 34962,
   "byteStride": 12
  },
  {
   "buffer": 0,
   "byteOffset": 150456,
   "byteLength": 1032,
   "target": 34962,
   "byteStride": 12
  },
  {
   "buffer": 0,
   "byteOffset": 151488,
   "byteLength": 688,
   "target": 34962,
   "byteStride": 8
  },
  {
   "buffer": 0,
   "byteOffset": 152176,
   "byteLength": 360,
   "target": 34963
  }
 ],
 "buffers": [
  {
   "byteLength": 152536,
   "uri": "data:application/octet-stream;base64,"
  }
 ],
 "images": [
  {
   "name": "Eye",
   "bufferView": 0,
   "mimeType": "image/png"
  },
  {
   "name": "Body",
   "bufferView": 1,
   "mimeType": "image/png"
  }
 ],
 "materials": [
  {
   "name": "mat_eye",
   "pbrMetallicRoughness": {
    "baseColorFactor": [
     0.7764705882352941,
     0.7764705882352941,
     0.7764705882352941,
     1
    ],
    "baseColorTexture": {
     "index": 0,
     "texCoord": 0
    },
    "roughnessFactor": 0.7071,
    "metallicFactor": 0
   },
   "doubleSided": true
  },
  {
   "name": "mat_body",
   "pbrMetallicRoughness": {
    "baseColorFactor": [
     0.7764705882352941,
     0.7764705882352941,
     0.7764705882352941,
     1
    ],
    "baseColorTexture": {
     "index": 1,
     "texCoord": 0
    },
    "roughnessFactor": 0.7071,
    "metallicFactor": 0
   },
   "doubleSided": true
  }
 ],
 "meshes": [
  {
   "primitives": [
    {
     "indices": 3,
     "material": 0,
     "mode": 4,
     "attributes": {
      "POSITION": 0,
      "NORMAL": 1,
      "TEXCOORD_0": 2
     }
    }
   ]
  },
  {
   "primitives": [
    {
     "indices": 7,
     "material": 1,
     "mode": 4,
     "attributes": {
      "POSITION": 4,
      "NORMAL": 5,
      "TEXCOORD_0": 6
     }
    }
   ]
  },
  {
   "primitives": [
    {
     "indices": 11,
     "material": 0,
     "mode": 4,
     "attributes": {
      "POSITION": 8,
      "NORMAL": 9,
      "TEXCOORD_0": 10
     }
    }
   ]
  },
  {
   "primitives": [
    {
     "indices": 15,
     "material": 1,
     "mode": 4,
     "attributes": {
      "POSITION": 12,
      "NORMAL": 13,
      "TEXCOORD_0": 14
     }
    }
   ]
  },
  {
   "primitives": [
    {
     "indices": 19,
     "material": 1,
     "mode": 4,
     "attributes": {
      "POSITION": 16,
      "NORMAL": 17,
      "TEXCOORD_0": 18
     }
    }
   ]
  },
  {
   "primitives": [
    {
     "indices": 23,
     "material": 1,
     "mode": 4,
     "attributes": {
      "POSITION": 20,
      "NORMAL": 21,
      "TEXCOORD_0": 22
     }
    }
   ]
  }
 ],
 "nodes": [
  {
   "name": "BR_Bulbasaur"
  },
  {
   "name": "LightPreset",
   "translation": [
    0.008640050888061523,
    3.5834197998046875,
    0.6514600515365601
   ]
  },
  {
   "name": "CameraPreset",
   "translation": [
    0.008640050888061523,
    3.5834197998046875,
    0.6514600515365601
   ]
  },
  {
   "name": "fushigidane_mat_0_fushigidane_mat_0",
   "mesh": 0
  },
  {
   "name": "chi",
   "mesh": 1
  },
  {
   "name": "reye",
   "mesh": 2
  },
  {
   "name": "hua",
   "mesh": 3
  },
  {
   "name": "Merged_Meshes1",
   "mesh": 4
  },
  {
   "name": "zb",
   "mesh": 5
  }
 ],
 "samplers": [
  {
   "magFilter": 9729,
   "minFilter": 9987,
   "wrapS": 10497,
   "wrapT": 10497
  }
 ],
 "scene": 0,
 "scenes": [
  {
   "nodes": [
    0,
    1,
    2,
    3,
    4,
    5,
    6,
    7,
    8
   ]
  }
 ],
 "textures": [
  {
   "sampler": 0,
   "source": 0
  },
  {
   "sampler": 0,
   "source": 1
  }
 ]
}